<svg xmlns="http://www.w3.org/2000/svg" fill="#066eee" viewBox="0 0 50 50" width="50px" height="50px"><path d="M 24.5 2 C 23.128906 2 22 3.128906 22 4.5 L 22 9.5 C 22 10.871094 23.128906 12 24.5 12 C 25.871094 12 27 10.871094 27 9.5 L 27 4.5 C 27 3.128906 25.871094 2 24.5 2 Z M 24.5 4 C 24.78125 4 25 4.21875 25 4.5 L 25 9.5 C 25 9.78125 24.78125 10 24.5 10 C 24.21875 10 24 9.78125 24 9.5 L 24 4.5 C 24 4.21875 24.21875 4 24.5 4 Z M 10.964844 7.46875 C 10.324219 7.46875 9.683594 7.710938 9.195313 8.195313 L 7.492188 9.90625 L 8.496094 9.90625 C 8.480469 10.566406 8.695313 11.230469 9.195313 11.734375 L 12.734375 15.269531 C 12.871094 15.40625 13.074219 15.375 13.234375 15.472656 L 13.144531 15.5625 L 13.449219 15.5625 C 14.144531 15.90625 14.859375 15.90625 15.558594 15.5625 L 15.5625 15.5625 C 15.570313 15.558594 15.574219 15.558594 15.582031 15.554688 L 15.5625 15.5625 L 15.976563 15.5625 L 16.265625 15.269531 C 17.238281 14.300781 17.238281 12.703125 16.269531 11.734375 L 12.734375 8.195313 C 12.246094 7.710938 11.605469 7.46875 10.964844 7.46875 Z M 38.03125 7.46875 C 37.390625 7.46875 36.75 7.714844 36.265625 8.199219 L 32.730469 11.734375 C 31.761719 12.703125 31.761719 14.300781 32.730469 15.269531 L 33.023438 15.5625 L 33.4375 15.5625 L 33.417969 15.554688 C 33.425781 15.558594 33.429688 15.558594 33.4375 15.5625 L 33.441406 15.5625 C 34.140625 15.90625 34.855469 15.90625 35.550781 15.5625 L 35.851563 15.5625 L 35.765625 15.472656 C 35.921875 15.375 36.128906 15.40625 36.265625 15.269531 L 39.800781 11.734375 C 40.300781 11.234375 40.519531 10.570313 40.5 9.90625 L 41.503906 9.90625 L 39.800781 8.199219 C 39.316406 7.714844 38.675781 7.46875 38.03125 7.46875 Z M 10.964844 9.460938 C 11.09375 9.460938 11.21875 9.511719 11.316406 9.609375 L 14.855469 13.148438 C 15.054688 13.347656 15.054688 13.65625 14.855469 13.855469 C 14.65625 14.050781 14.34375 14.050781 14.148438 13.855469 L 10.609375 10.316406 C 10.414063 10.121094 10.414063 9.808594 10.609375 9.609375 C 10.710938 9.511719 10.835938 9.460938 10.964844 9.460938 Z M 38.035156 9.464844 C 38.164063 9.464844 38.289063 9.515625 38.386719 9.613281 C 38.582031 9.808594 38.582031 10.125 38.386719 10.320313 L 34.851563 13.855469 C 34.65625 14.050781 34.339844 14.050781 34.144531 13.855469 C 33.949219 13.660156 33.949219 13.34375 34.144531 13.148438 L 37.679688 9.613281 L 37.683594 9.613281 C 37.78125 9.515625 37.90625 9.464844 38.035156 9.464844 Z M 24.5 14 C 19.269531 14 15 18.269531 15 23.5 L 15 27 L 13 27 C 11.898438 27 11 27.898438 11 29 L 11 46 C 11 47.101563 11.898438 48 13 48 L 36 48 C 37.101563 48 38 47.101563 38 46 L 38 29 C 38 27.898438 37.101563 27 36 27 L 34 27 L 34 23.5 C 34 18.269531 29.730469 14 24.5 14 Z M 24.5 16 C 28.636719 16 32 19.363281 32 23.5 L 32 27 L 30 27 L 30 23.5 C 30 20.519531 27.480469 18 24.5 18 C 21.519531 18 19 20.519531 19 23.5 L 19 27 L 17 27 L 17 23.5 C 17 19.363281 20.363281 16 24.5 16 Z M 5.5 20 C 4.128906 20 3 21.128906 3 22.5 L 3 23.5 L 3.417969 23.5 C 3.824219 24.332031 4.519531 25 5.5 25 L 10.5 25 C 11.480469 25 12.175781 24.332031 12.582031 23.5 L 13 23.5 L 13 22.5 C 13 21.128906 11.871094 20 10.5 20 Z M 24.5 20 C 26.398438 20 28 21.601563 28 23.5 L 28 27 L 21 27 L 21 23.5 C 21 21.601563 22.601563 20 24.5 20 Z M 38.5 20 C 37.128906 20 36 21.128906 36 22.5 L 36 23.5 L 36.417969 23.5 C 36.824219 24.332031 37.519531 25 38.5 25 L 43.5 25 C 44.480469 25 45.175781 24.332031 45.582031 23.5 L 46 23.5 L 46 22.5 C 46 21.128906 44.871094 20 43.5 20 Z M 5.5 22 L 10.5 22 C 10.78125 22 11 22.21875 11 22.5 C 11 22.78125 10.78125 23 10.5 23 L 5.5 23 C 5.21875 23 5 22.78125 5 22.5 C 5 22.21875 5.21875 22 5.5 22 Z M 38.5 22 L 43.5 22 C 43.78125 22 44 22.21875 44 22.5 C 44 22.78125 43.78125 23 43.5 23 L 38.5 23 C 38.21875 23 38 22.78125 38 22.5 C 38 22.21875 38.21875 22 38.5 22 Z M 13 29 L 36 29 L 36 46 L 13 46 Z M 24.5 33 C 22.578125 33 21 34.578125 21 36.5 C 21 37.414063 21.421875 38.191406 22 38.8125 L 22 40.5 C 22 41.871094 23.128906 43 24.5 43 C 25.871094 43 27 41.871094 27 40.5 L 27 38.8125 C 27.578125 38.191406 28 37.414063 28 36.5 C 28 34.578125 26.421875 33 24.5 33 Z M 24.5 35 C 25.339844 35 26 35.660156 26 36.5 C 26 36.992188 25.765625 37.410156 25.394531 37.691406 L 25 37.992188 L 25 40.5 C 25 40.78125 24.78125 41 24.5 41 C 24.21875 41 24 40.78125 24 40.5 L 24 37.992188 L 23.605469 37.691406 C 23.234375 37.410156 23 36.992188 23 36.5 C 23 35.660156 23.660156 35 24.5 35 Z"/></svg>